<svg width="208" height="206" viewBox="0 0 208 206" fill="none" xmlns="http://www.w3.org/2000/svg">
<path fill-rule="evenodd" clip-rule="evenodd" d="M37.8306 158.723V158.576C36.6381 157.2 35.4856 155.797 34.3732 154.365H32.7413L31.5166 156.986C32.5178 158.279 33.5189 159.536 34.5935 160.754L37.8306 158.723Z" fill="#FFDE59"/>
<path fill-rule="evenodd" clip-rule="evenodd" d="M176.014 49.7411V49.2976L175.977 49.2609H175.941L172.677 50.848L172.457 50.9948L172.714 51.3649L176.014 49.7411ZM116.655 13.5105H89.7007C74.9462 15.7141 60.9701 21.5434 49.0269 30.4754V32.2093L53.3285 32.0992C63.8464 24.6838 75.8888 19.7082 88.5767 17.5358C101.265 15.3634 114.278 16.0489 126.667 19.5423C127.668 19.8023 128.669 20.0957 129.67 20.4292C141.273 24.1525 151.952 30.2953 161 38.4511L163.817 39.0813L161.964 38.9679C161.851 38.9679 161.704 38.9312 161.517 38.9312L161 38.4511L163.817 39.0813L166.523 39.2647H167.414C153.712 25.4442 135.909 16.4157 116.655 13.5238V13.5105Z" fill="#FFDE59"/>
<path fill-rule="evenodd" clip-rule="evenodd" d="M27.6724 151.594H28.0795L29.4144 147.866V147.09C22.1022 135.086 17.8403 121.478 17.0004 107.451C16.1604 93.4241 18.7679 79.405 24.5955 66.6162L23.4808 61.0779H23.0003C15.6531 75.2177 12.2128 91.0593 13.0341 106.97C13.8553 122.881 18.9083 138.285 27.6724 151.594Z" fill="#FFDE59"/>
<path fill-rule="evenodd" clip-rule="evenodd" d="M106.904 188.598V188.341C105.679 188.378 104.421 188.415 103.16 188.415C86.1263 188.438 69.4686 183.412 55.2944 173.974H52.104L50.2886 175.121C62.0846 183.669 75.7916 189.209 90.2182 191.259C93.3278 191.709 96.4592 191.993 99.5991 192.109C100.787 192.146 101.972 192.183 103.16 192.183H104.308L106.904 188.598Z" fill="#FFDE59"/>
<path fill-rule="evenodd" clip-rule="evenodd" d="M119.065 190.779H119.175C129.191 188.992 138.832 185.523 147.688 180.519H139.345C133.015 183.429 126.354 185.556 119.509 186.854L119.065 189.809V190.779ZM119.065 186.938V189.819L119.509 186.864L119.065 186.938Z" fill="#FFDE59"/>
<path fill-rule="evenodd" clip-rule="evenodd" d="M177.129 50.8481H173.755L173.201 51.1482V51.9985C180.213 61.6954 185.125 72.7471 187.621 84.4477C190.117 96.1483 190.143 108.24 187.697 119.952L189.106 129.925C191.959 121.019 193.41 111.724 193.407 102.373C193.442 83.9299 187.755 65.9292 177.129 50.8481Z" fill="#FFDE59"/>
<path fill-rule="evenodd" clip-rule="evenodd" d="M99.5256 205.993C72.686 204.994 47.2874 193.605 28.7002 174.234C33.4824 176.338 38.3013 178.445 43.0869 180.586C49.8347 184.761 52.985 187.715 61.1078 191.332C73.3419 196.797 88.8066 201.452 102.336 201.709L101.708 202.819L99.5256 205.993Z" fill="#FFDE59"/>
<path fill-rule="evenodd" clip-rule="evenodd" d="M114.132 201.155L107.832 205.957C163.002 203.706 207.01 158.513 207.01 103.03C207.01 46.1201 160.666 0 103.53 0C46.3939 0 8.22941e-05 46.1201 8.22941e-05 103.03C-0.0257725 123.419 6.04113 143.351 17.4236 160.273L22.9867 160.497C10.9402 143.755 4.47202 123.65 4.49863 103.03C4.49863 48.5208 48.8434 4.3346 103.53 4.3346C158.217 4.3346 202.525 48.5041 202.525 103.03C202.525 153.958 163.813 195.874 114.132 201.155Z" fill="#FFDE59"/>
<path d="M39.5424 174.851H40.1698C41.2076 174.778 42.5058 174.261 44.101 173.264L67.0776 158.746C68.2146 157.933 69.418 157.217 70.6751 156.606C71.4983 156.167 72.4124 155.926 73.3449 155.902C74.386 155.914 75.4024 156.221 76.2749 156.789L76.7922 155.755L64.9285 149.66C60.7042 147.624 56.6922 145.175 52.9512 142.348C49.4305 139.654 46.5371 136.013 44.3146 131.382C43.831 129.967 43.5807 128.482 43.5737 126.987C43.5737 120.412 48.3192 114.342 57.8102 108.778C65.4028 104.438 73.784 101.651 82.4655 100.579C83.7585 100.433 85.0587 100.359 86.36 100.359C91.289 100.359 95.4806 101.43 98.8912 103.534C102.302 105.638 104.007 108.115 104.007 110.959V111.326L104.785 111.476L104.858 110.809C104.827 109.64 104.536 108.492 104.007 107.448C103.455 106.411 103.151 105.261 103.119 104.087C103.138 103.265 103.454 102.479 104.01 101.873C99.7088 99.9525 94.8532 98.9922 89.3268 98.9922C83.7449 99.0256 78.1939 99.821 72.8276 101.356C67.3738 102.83 62.1293 104.989 57.2195 107.781C50.6653 111.66 46.3046 115.723 44.1377 119.968C45.8797 115.5 48.7731 110.966 52.8144 106.488C56.8925 101.946 61.3788 97.4162 66.2734 92.8971C70.3147 89.0927 74.1325 85.3283 77.7567 81.4905C81.1616 77.9896 84.1709 74.1252 86.7304 69.9671C89.1032 66.126 90.2879 62.1748 90.2879 58.187C90.2879 54.566 88.9897 50.8515 86.5068 47.0704C85.9325 47.5437 85.2122 47.804 84.4678 47.8073C83.2129 47.7662 81.9885 47.4108 80.907 46.7737C79.8298 46.0943 78.5864 45.7241 77.3128 45.7034H76.8656L77.0158 46.5169C79.8691 46.7737 82.4655 48.2875 84.7648 50.9116C87.1008 53.6057 88.2488 56.8566 88.2488 60.6611C88.2488 63.912 87.1375 67.273 84.9483 70.7073C82.5303 74.4315 79.7491 77.9073 76.6454 81.0837C73.9756 83.8545 70.2313 87.5089 65.4858 92.0535C60.0616 96.9905 54.9502 102.26 50.1814 107.831C45.7318 113.04 43.0253 118.283 42.062 123.563L41.9151 121.089C41.8685 116.817 42.9963 112.614 45.1756 108.938C47.2555 105.469 49.6114 102.171 52.2204 99.0789C54.9269 95.8647 57.7468 92.7271 60.6735 89.6262C68.6094 81.167 73.8722 74.4451 76.5052 69.3503C78.027 66.4328 78.7678 63.5886 78.7678 60.8545C78.7678 57.6802 77.6933 54.4659 75.5041 51.215C73.3148 47.964 69.8709 44.4197 65.0486 40.6919C62.7073 38.8766 60.0209 37.5561 57.1528 36.8108H44.7184C43.4689 37.1192 42.2424 37.5136 41.0474 37.9911C37.856 39.2835 34.9658 41.22 32.5576 43.6795C28.6998 47.6806 26.7742 52.2853 26.7742 57.4168C26.8044 61.0871 27.679 64.7013 29.3305 67.9799C31.0777 71.534 33.3117 74.8277 35.9682 77.766L44.2345 71.0074C41.734 70.236 39.4057 68.9908 37.3765 67.3397C35.1332 65.5862 33.2345 63.4326 31.7767 60.9878C30.3374 58.696 29.5676 56.0479 29.5541 53.3423C29.5541 50.0924 30.8512 47.1382 33.4453 44.4797C35.6927 42.0975 38.4406 40.2425 41.4913 39.0481C44.4928 37.8254 47.7042 37.1991 50.9456 37.2042C56.0649 37.2042 60.5501 38.6813 64.3678 41.5988C68.002 44.4797 69.8575 48.0241 69.8575 52.2353C69.8575 57.9214 66.9274 64.3099 61.0673 71.4009C58.1773 75.0219 54.9135 78.713 51.3894 82.5541C47.9788 86.1718 44.715 89.8662 41.6381 93.634C38.6876 97.1668 36.1036 100.99 33.9259 105.044C31.8868 108.922 30.849 112.763 30.849 116.641C30.849 121.309 32.6644 125.947 36.2619 130.601C35.8915 130.381 35.521 130.195 35.1506 130.011L36.966 132.412C38.2917 133.081 39.4174 134.087 40.2298 135.329C42.1554 138.21 39.8961 135.846 42.5659 137.877C43.46 138.513 44.2483 139.286 44.9019 140.168C46.6254 140.754 48.2603 141.574 49.7609 142.605C53.2816 144.969 56.8057 147.183 60.4399 149.274C59.8305 149.496 59.2456 149.781 58.6946 150.124L46.5705 157.769C37.4499 163.568 32.4441 166.742 31.483 167.185C30.6615 167.628 29.7464 167.869 28.8133 167.889C27.7865 167.859 26.7868 167.553 25.9199 167.002L21.4347 164.711C21.1891 164.743 20.9414 164.755 20.6938 164.748L20.804 165.452L20.8407 165.708L29.998 170.376L37.1529 174.144C37.8937 174.525 38.6999 174.763 39.529 174.844L39.5424 174.851Z" fill="#FFDE59"/>
<path d="M157.222 162.034C152.588 165.762 147.545 167.916 142.095 168.496L142.168 169.676C154.662 167.796 164.748 162.983 172.423 155.239C180.099 147.52 183.916 138.9 183.916 129.564C183.916 121.918 181.247 114.926 175.907 108.588C172.83 104.967 169.827 102.79 166.863 102.123C167.335 101.675 167.746 101.166 168.085 100.609L174.722 89.1993L173.721 88.6092C172.98 90.0096 172.053 90.8965 170.865 91.2766C169.677 91.6567 167.714 91.8268 164.934 91.8268H142.538L161.374 80.9336C162.708 80.1934 163.526 79.3431 163.86 78.3462C164.235 77.1527 164.41 75.9055 164.377 74.6551V57.4834C164.377 55.2328 164.491 53.5689 164.748 52.462C164.973 51.4037 165.532 50.4456 166.343 49.7278L174.239 44.1895L173.571 43.1893C171.912 44.3885 169.912 45.0232 167.864 44.9998C165.936 44.9998 163.636 44.5563 161.003 43.6327L146.396 38.6846C142.096 37.282 138.425 36.5795 135.383 36.5773C133.177 36.5429 130.982 36.8926 128.896 37.611C126.87 38.3584 124.921 39.2985 123.076 40.4185L116.328 44.3329C117.069 40.7152 118.107 37.8344 119.442 35.7671C120.777 33.6998 122.258 32.2194 123.853 31.3725C125.253 30.5688 126.835 30.1361 128.449 30.1155C129.877 30.08 131.291 30.3972 132.567 31.0391C133.595 31.513 134.469 32.2678 135.086 33.2164L135.827 32.9229C135.05 31.4092 133.234 30.2255 130.451 29.3019C129.183 28.8625 127.964 28.2938 126.814 27.6047C126.304 27.2909 125.868 26.8712 125.535 26.3741C125.202 25.8771 124.98 25.3142 124.885 24.7239C120.953 26.2377 118.21 28.9718 116.765 32.9229C115.3 36.9669 114.487 41.2177 114.356 45.5166C114.472 46.3237 114.497 47.1414 114.429 47.954C114.39 48.3143 114.327 48.6718 114.242 49.0243C114.242 51.9051 114.206 57.0266 114.206 64.4988C112.984 65.0156 111.759 65.4991 110.535 65.9759C109.387 67.7574 107.659 69.0883 105.642 69.7437L103.603 70.9607C103.046 71.1965 102.461 71.3579 101.861 71.4408L101.748 71.5142L101.601 71.6275C100.34 72.3277 99.5252 73.178 99.1548 74.1383C98.9984 74.5302 98.8865 74.9384 98.8211 75.3553C98.6622 76.1826 98.5873 77.0237 98.5975 77.866V98.6954L89.5136 103.977C89.5503 104.087 89.5503 104.2 89.5871 104.31C89.6238 104.42 89.6238 104.717 89.6605 104.977L89.7739 105.201C90.9954 104.534 92.0733 104.167 92.9977 104.167C94.9266 104.167 96.3349 105.274 97.2626 107.501C98.1871 109.879 98.6404 112.413 98.5975 114.964V134.172C98.5975 136.573 98.4874 138.31 98.1904 139.454C97.9453 140.589 97.2832 141.591 96.3349 142.261C94.8164 138.31 94.0723 134.616 94.0723 131.072C94.0723 126.27 95.4472 123.069 98.1536 121.359L97.5596 120.358L90.8118 124.31C88.9237 125.273 87.1766 126.49 85.6191 127.927C85.3774 128.26 85.1546 128.606 84.9517 128.964C84.6253 129.528 84.2258 130.046 83.7636 130.505C83.1508 131.951 82.8593 133.513 82.9093 135.083C82.9093 138.11 83.5767 141.508 84.8749 145.276C85.7474 147.801 86.9312 150.208 88.399 152.441C88.7226 152.778 89.008 153.149 89.25 153.548C90.0676 154.882 91.1789 155.175 92.1801 157.279L93.9955 158.903L95.4438 160.814C96.5877 161.189 97.6371 161.807 98.5207 162.624C99.5586 163.584 99.5586 164.028 100.299 164.248C103.079 165.135 103.97 166.835 104.564 167.019C105.254 167.23 105.913 167.528 106.527 167.906C107.975 168.532 109.42 169.159 110.865 169.753H110.828C111.07 169.835 111.317 169.896 111.569 169.936C111.964 170.023 112.333 170.2 112.647 170.453L114.202 170.97C114.202 177.802 113.572 183.083 112.2 186.888C110.865 190.619 109.196 193.223 107.194 194.717C105.192 196.211 103.116 196.934 101.077 196.934C99.6581 196.966 98.2544 196.635 96.999 195.974C95.7776 195.344 94.9232 194.64 94.4427 193.793L93.6985 194.09C94.1685 195.037 94.938 195.802 95.8877 196.267C96.9239 196.839 98.0015 197.333 99.1114 197.744C100.383 198.188 101.602 198.77 102.746 199.481C103.254 199.779 103.691 200.185 104.024 200.67C104.357 201.155 104.579 201.708 104.675 202.289C110.755 200.066 114.178 194.329 114.943 185.077C115.24 181.199 115.39 176.658 115.39 171.407C123.996 174.217 132.995 175.638 142.048 175.618L144.828 175.581C145.235 175.211 145.829 174.914 147.387 174.914C147.824 174.377 148.445 174.021 149.129 173.914C149.684 173.855 150.241 173.83 150.798 173.841C152.171 173.063 153.579 172.324 155.023 171.623C157.472 170.553 159.511 169.89 161.253 169.623C162.713 169.384 164.187 169.249 165.665 169.219L167.407 169.069C168.297 168.923 168.928 168.627 169.299 168.182C169.481 168.019 169.627 167.82 169.729 167.598C169.831 167.376 169.887 167.136 169.893 166.892C169.883 166.516 169.752 166.154 169.52 165.858C169.18 165.57 168.743 165.425 168.298 165.452C167.947 165.454 167.598 165.503 167.26 165.598C163.91 166.589 160.628 167.798 157.436 169.219C153.177 170.859 148.651 171.698 144.087 171.693C139.069 171.68 134.086 170.857 129.33 169.256C124.424 167.63 119.741 165.396 115.39 162.607V154.038L122.769 146.703L115.39 139.367V115.204C115.38 112.611 115.54 110.02 115.871 107.448C116.127 105.074 116.792 102.763 117.836 100.616C118.765 98.6149 120.277 96.9412 122.175 95.8146L121.581 94.7809L115.39 98.4487V94.8543C115.38 92.2614 115.54 89.6705 115.871 87.0987C116.127 84.7252 116.792 82.4138 117.836 80.2667C118.765 78.2657 120.277 76.5919 122.175 75.4653L121.581 74.4317L115.4 78.0527V65.199C123.296 61.6546 129.674 56.9633 134.606 51.0182L133.715 50.318C128.933 55.9663 122.852 60.511 115.4 63.9086V55.5995C115.369 52.4591 115.592 49.3212 116.068 46.2168C118.412 45.2175 120.928 44.6786 123.476 44.6297C127.445 44.6297 133.378 46.279 141.274 49.5778C143.683 50.5381 146.056 51.425 148.502 52.2019C150.837 52.9612 153.278 53.3471 155.734 53.3455L157.512 53.2722C155.584 54.1958 154.322 55.0794 153.618 55.9396C152.914 56.7999 152.617 58.3403 152.617 60.631V77.8027C152.617 80.5735 152.433 82.5307 152.026 83.6744C151.619 84.818 150.728 85.8183 149.316 86.5919L140.202 91.8268H131.152C129.895 91.7784 128.64 91.9534 127.444 92.3436C126.48 92.7137 125.589 93.5272 124.885 94.7809L118.174 106.194L119.211 106.784C119.952 105.381 120.917 104.494 122.068 104.087C123.219 103.68 125.182 103.533 127.925 103.533H158.66C157.621 104.151 156.618 104.829 155.657 105.564L148.946 110.736L149.69 111.659C151.192 110.546 153.009 109.938 154.879 109.922C158.624 109.922 162.295 111.696 165.892 115.277C170.524 119.894 172.835 125.422 172.824 131.862C172.824 137.326 171.377 142.79 168.485 148.257C165.72 153.575 161.886 158.265 157.222 162.034ZM114.212 139.361L106.797 146.696L114.212 154.032V161.86C105.425 155.989 99.6053 149.857 96.7854 143.395L107.428 137.23C108.726 136.49 109.503 135.64 109.874 134.679C110.215 133.467 110.378 132.211 110.358 130.951V73.6581C110.331 72.0843 110.517 70.514 110.912 68.9901C111.322 67.623 112.434 66.516 114.212 65.7025V139.361Z" fill="#FFDE59"/>
</svg>
